<svg xmlns="http://www.w3.org/2000/svg" xmlns:xlink="http://www.w3.org/1999/xlink" width="60" height="60" viewBox="0 0 60 60">
  <defs>
    <clipPath id="clip-path">
      <rect id="Rectangle_7" data-name="Rectangle 7" width="60" height="60" transform="translate(35 19)" fill="#dc5e44"/>
    </clipPath>
  </defs>
  <g id="Groupe_de_masques_1" data-name="Groupe de masques 1" transform="translate(-35 -19)" clip-path="url(#clip-path)">
    <g id="galaxy-spiral-shape" transform="translate(34.986 79.03)">
      <path id="Tracé_1" data-name="Tracé 1" d="M44.307-56.017c-4.5.4-9.952,2.544-15.343,6.037-2.086,1.371-2.356,1.606-2.356,2.168a.965.965,0,0,0,.75,1c.293.07.469-.012,2.45-1.043a12.984,12.984,0,0,1,5.708-1.559c2.192-.105,3.587.293,4.618,1.325s1.336,2.673.961,5.31c-1.02,7-4.771,13.562-10.737,18.8C26.08-20.231,22.283-18.4,18.766-18.4c-3.024-.012-4.771-1.336-5.345-4.067a8.342,8.342,0,0,1-.176-1.418c0-.5-.059-.68-.293-.9-.445-.457-.938-.4-1.489.188-1.067,1.125-1.782,3.352-1.957,6.142l-.082,1.289-.375-.762c-2.368-4.9-1.16-12.624,3.329-21.321a16.092,16.092,0,0,0,.867-1.84,1.08,1.08,0,0,0-1.055-.985c-.457,0-2.3,1.383-3.528,2.661a30.064,30.064,0,0,0-5.322,8.064C.961-26.538.211-24.076.035-20.5A17.032,17.032,0,0,0,3.388-9.237a13.466,13.466,0,0,0,8.088,4.958c5.2,1.078,11.464-.4,18.368-4.337a65.593,65.593,0,0,0,6.67-4.548,48.32,48.32,0,0,0,7.631-7.76,44.348,44.348,0,0,0,8.369-18.415c.363-2.04.328-1.969.656-1.184,2.063,4.888,1.02,12.155-2.837,19.786-.809,1.582-.809,2.016,0,2.333.492.188.973-.105,2.086-1.266,5.029-5.24,8.229-14.582,7.49-21.884-.469-4.548-1.864-7.818-4.56-10.631a11.881,11.881,0,0,0-7.982-3.845A11.611,11.611,0,0,0,44.307-56.017Z" fill="#dc5e44"/>
      <path id="Tracé_2" data-name="Tracé 2" d="M30.417-46.019a17.019,17.019,0,0,0-5.427,2.825,26.93,26.93,0,0,0-4.079,4.325A15.954,15.954,0,0,0,18.7-34.4a7.975,7.975,0,0,0-.012,3.458,3.543,3.543,0,0,0,3.165,2.368l.352.035-.481.328c-1.465,1.008-3.247.832-3.868-.4a5.252,5.252,0,0,1-.434-2.766c.07-.785.059-.856-.223-1.137a.926.926,0,0,0-1.336-.047,10.485,10.485,0,0,0-1.09,3.141,10.75,10.75,0,0,0,.059,3.692,5.5,5.5,0,0,0,2.731,3.6,3.063,3.063,0,0,0,1.957.375,4.882,4.882,0,0,0,2.04-.316c3.493-1.266,6.482-4.22,8.615-8.533,1.125-2.262,1.418-3.282,1.418-4.853,0-1.172-.023-1.348-.316-1.887a3.814,3.814,0,0,0-1.981-1.735,3.581,3.581,0,0,1-.727-.3c-.059-.047.457-.363,1.149-.7,3.024-1.477,4.161-.563,4.161,3.364,0,1.067.023,1.184.27,1.418a1,1,0,0,0,1.219.082,4.673,4.673,0,0,0,.715-1.137c1.782-3.657.949-8.252-1.711-9.553A6.144,6.144,0,0,0,30.417-46.019Z" fill="#dc5e44"/>
    </g>
  </g>
</svg>
